PathFileType	4	(X/Y/Z)	Patient4_TMGait_0pt3_03_right_13.trc.trc
DataRate	CameraRate	NumFrames	NumMarkers	Units	OrigDataRate	OrigDataStartFrame	OrigNumFrames
54.474708171206	54.474708171206	4	33	mm	54.474708171206	71	       141
Frame#	Time	Sacral			L.Shoulder			Chest			R.Shoulder			Neck			R.ASIS			L.ASIS			R.Thigh.Superior			R.Thigh.Lateral			R.Thigh.Inferior			R.Patella			L.Thigh.Superior			L.Thigh.Lateral			L.Thigh.Inferior			L.Patella			L.Shank.Superior			L.Shank.Lateral			L.Shank.Inferior			R.Shank.Superior			R.Shank.Lateral			R.Shank.Inferior			R.Heel			R.Midfoot.Superior			R.Midfoot.Lateral			R.Toe			L.Heel			L.Midfoot.Lateral			L.Midfoot.Superior			L.Toe			L.Elbow			L.Wrist			R.Elbow			R.Wrist			
		X1	Y1	Z1	X2	Y2	Z2	X3	Y3	Z3	X4	Y4	Z4	X5	Y5	Z5	X6	Y6	Z6	X7	Y7	Z7	X8	Y8	Z8	X9	Y9	Z9	X10	Y10	Z10	X11	Y11	Z11	X12	Y12	Z12	X13	Y13	Z13	X14	Y14	Z14	X15	Y15	Z15	X16	Y16	Z16	X17	Y17	Z17	X18	Y18	Z18	X19	Y19	Z19	X20	Y20	Z20	X21	Y21	Z21	X22	Y22	Z22	X23	Y23	Z23	X24	Y24	Z24	X25	Y25	Z25	X26	Y26	Z26	X27	Y27	Z27	X28	Y28	Z28	X29	Y29	Z29	X30	Y30	Z30	X31	Y31	Z31	X32	Y32	Z32	X33	Y33	Z33	

71	25.925000000000	739.043955378241	1010.088723188579	555.780906699405	908.336103074789	1421.447426616771	336.089171627938	1038.351862543227	1346.193407022518	472.982376971321	1001.553391818660	1430.223547290262	657.881892524425	928.490271293523	1484.778524913298	492.971656258803	979.973282590132	923.952339226710	628.610530191506	919.265478936752	953.249043304247	361.711792086448	978.620355724590	715.732160202042	591.442427697572	888.573648128967	616.906692918305	661.704619494525	939.793712626508	556.369950147179	570.246627620229	924.790135747080	467.795548541028	575.033542122189	984.050366389002	757.130778203995	381.382868442880	910.817370226745	634.397310070831	313.937287511779	1012.369008422320	567.408093006253	367.996275081104	1032.153486418706	505.378837086203	366.117112737743	1015.674931975393	436.463158496038	354.806067515074	948.420944096739	307.586876312689	303.719027401394	1037.093595373219	207.672346472857	354.704385347770	879.269675224888	386.119914499083	585.665457695643	797.999820244743	295.547316467845	656.436603868930	809.806470184114	197.278912464554	587.569754212113	646.764947209746	46.804561992970	569.419954336886	820.685392143526	95.414649685345	595.081018307947	733.757106359487	37.708758838280	639.008239576963	940.937663546351	40.305502030721	617.237496460841	947.750283046674	37.332148922999	391.106008729092	1021.996697523001	37.584220519528	310.940730368526	1099.910931009272	106.244202916569	334.811933622831	1230.055054868954	64.703281467398	307.553308273895	748.917795546007	1098.413812904428	267.576327985513	728.853335775931	837.327863986374	274.974631837465	1086.727211841068	1105.005657335972	784.919668828618	1304.151528480260	1194.885810134163	712.829787755584	
72	25.943357142857	740.520721680034	1009.617060759635	552.508639466594	909.493505844936	1420.281315093493	331.492424188114	1039.627971976759	1345.499008495863	468.543228175683	1002.837122895107	1429.998644048169	653.233167597618	929.551599814020	1484.140888218104	488.264847313813	981.509981811214	923.470141383576	625.611272806187	920.659381301677	952.371971342464	358.789708915592	979.075057983374	714.900432955642	589.047314644386	888.262671462001	616.645790132812	659.617742594221	938.986312331265	555.515944136610	568.491496490906	923.048468163133	466.922713039885	573.605568628949	985.925726687537	756.522770170001	378.748432196690	911.991751548302	633.440361153388	312.424628883394	1013.729731980029	567.096024318125	366.333384064999	1032.536235191449	504.318625076196	365.120230370540	1015.993327060860	434.826056363323	353.890558366983	947.412692735500	306.656989020441	303.251007376609	1034.364333894466	205.922441810009	354.952513965991	876.743624333569	385.624760774043	584.483164886487	794.702026900471	296.105651973962	655.859391937066	805.620720167575	197.454694326410	587.239811700305	641.424037245665	47.921924222776	569.597104117645	815.696588249142	95.736681057558	595.345646647488	728.422331550827	38.222776990584	639.094770099799	935.527161375173	39.996437671996	617.258996874257	942.083294678070	37.550099371962	391.801751968315	1016.080128153761	37.062456578742	311.339000866754	1095.356443806757	103.982988379589	335.642548572060	1224.773392520843	60.069484634658	307.790213928619	752.330360792012	1095.844138663905	263.775040821820	735.534974036687	834.369512603684	271.271330942670	1090.822740965080	1104.962278020036	779.244960467470	1307.290744412207	1196.551855651372	706.351244968436	
73	25.961714285714	742.086217775035	1009.327383470329	549.023657839365	910.697704945017	1419.336531121591	326.798334724598	1040.975752622587	1344.995147522190	463.968210768105	1004.223929917828	1429.932715967292	648.473309168217	930.668048405797	1483.685234826996	483.483435888193	983.112012666554	923.154089202568	622.341007212221	922.170134597019	951.796804937130	355.603573451455	979.646101406553	714.226731652915	586.477260165372	888.102331185108	616.544567201843	657.378951926417	938.395497874062	554.823089811206	566.601064118635	921.569948047980	466.172877700426	572.096960943226	988.299515296735	756.573405075061	376.275443614656	914.396823144409	633.016028243803	310.712937164127	1016.199075237553	567.384498979313	364.732860018484	1034.003419793661	503.615449670035	364.119006700782	1017.242917954708	433.455935877357	352.965975828130	947.111370558330	306.207975219697	302.453144062728	1031.740945400591	204.336792166456	355.122546437390	874.418235982604	385.274779127618	583.250548636265	791.537731606239	296.904025662490	655.223438135884	801.579978922047	197.823470690087	586.920229111508	636.156574041634	49.391902692032	569.809525602172	810.794192049747	96.065496727953	595.528836668056	723.148795315292	38.922030948323	639.194398150907	930.152912174422	39.644726299275	617.278681975430	936.018583128826	37.857648440858	392.264966031650	1009.828289233834	36.653477550300	311.575450038081	1090.386555226901	101.978566567564	336.299104623562	1219.150619319455	55.812416273691	307.940672525922	756.253507308298	1093.294086841614	259.590431824645	743.814579538416	831.447774293462	266.758112284741	1094.048785138931	1104.836882724947	773.680290556040	1310.531754179896	1196.380434504649	700.485914021141	
74	25.980071428571	743.722254676972	1009.234312693429	545.324452855585	911.924885652508	1418.655244974185	322.060635554903	1042.375906912483	1344.703054697188	459.293867363800	1005.710810416460	1430.029109346522	643.648450477709	931.832750055805	1483.430309292080	478.678136773123	984.744383110698	923.015920951605	618.813644187282	923.795880716590	951.526356268242	352.153280816671	980.252652097836	713.730057994718	583.755662151960	888.007535122849	616.638676032055	655.025381389177	937.940438741199	554.315641059221	564.621800779170	920.279144150339	465.577656720628	570.557819953656	991.089318547627	757.202840884440	373.970156280206	917.856068561710	633.053857968198	308.820435676620	1019.590025467722	568.134219842611	363.195031469959	1036.416908767175	503.202236165608	363.124834888511	1019.280702528017	432.347759866724	352.056638914881	947.484991003239	306.179627221736	301.380835450214	1029.308478801332	202.961765361818	355.233993973895	872.247602281305	385.103229029054	582.012460535044	788.459682003891	297.956234409584	654.539351295213	797.668422835650	198.402788576957	586.630256410998	630.971749285713	51.227609047739	570.052328740699	805.972028331601	96.389517892203	595.610430067276	717.937934046907	39.815153913566	639.303782854323	924.812540208576	39.261120162228	617.295847223731	929.864777121873	38.213585638630	392.505949960596	1003.555639659963	36.378520495370	311.676413933325	1085.235251059677	100.327052989315	336.795753828551	1213.453374774836	52.145284416933	308.028688813632	760.502190191459	1090.903166656698	255.083631492490	753.578346146752	828.764696859793	261.437106684391	1096.485899905957	1104.641091097317	768.252923317087	1313.960658444734	1194.368760565429	695.259415889883	
